<svg height="512pt" viewBox="0 -5 512 511" width="512pt" xmlns="http://www.w3.org/2000/svg"><path d="m345.617188 403.132812h12.113281c3.03125 0 5.769531-1.828124 6.929687-4.632812 1.160156-2.800781.519532-6.027344-1.625-8.171875l-20.609375-20.609375c-2.929687-2.929688-7.679687-2.929688-10.609375 0-2.929687 2.929688-2.929687 7.675781 0 10.605469l7.808594 7.808593h-12.113281c-3.03125 0-5.769531 1.824219-6.929688 4.628907-1.160156 2.800781-.519531 6.027343 1.625 8.171875l30.222657 30.222656c1.464843 1.464844 3.382812 2.195312 5.300781 2.195312 1.921875 0 3.839843-.730468 5.304687-2.195312 2.929688-2.929688 2.929688-7.679688 0-10.609375zm0 0"/><path d="m85.699219 322.15625c-1.160157-2.804688-3.894531-4.632812-6.929688-4.632812h-12.113281l7.808594-7.804688c2.929687-2.929688 2.929687-7.679688 0-10.605469-2.929688-2.929687-7.679688-2.929687-10.605469 0l-20.613281 20.609375c-2.144532 2.144532-2.785156 5.371094-1.625 8.171875 1.160156 2.804688 3.894531 4.628907 6.929687 4.628907h12.113281l-17.417968 17.417968c-2.929688 2.929688-2.929688 7.679688 0 10.605469 1.464844 1.464844 3.382812 2.199219 5.304687 2.199219 1.917969 0 3.835938-.734375 5.300781-2.199219l30.222657-30.21875c2.144531-2.144531 2.785156-5.371094 1.625-8.171875zm0 0"/><path d="m512 209.355469c0-20.949219-8.023438-40.769531-22.597656-55.816407-12.96875-13.386718-29.878906-21.722656-48.183594-23.875-7.726562-72.945312-69.636719-129.164062-143.742188-129.164062-19 0-37.480468 3.636719-54.921874 10.808594-3.832032 1.574218-5.660157 5.957031-4.085938 9.785156 1.574219 3.832031 5.957031 5.664062 9.789062 4.085938 15.625-6.421876 32.183594-9.679688 49.21875-9.679688 68.386719 0 125.1875 53.417969 129.3125 121.609375.234376 3.859375 3.367188 6.910156 7.230469 7.039063 16.949219.585937 32.792969 7.625 44.609375 19.828124 11.847656 12.230469 18.371094 28.347657 18.371094 45.378907 0 35.988281-29.277344 65.265625-65.265625 65.265625h-140.765625c17.726562-13.46875 29.199219-34.765625 29.199219-58.695313 0-19.523437-7.5625-37.921875-21.292969-51.804687-12.519531-12.65625-28.851562-20.234375-46.433594-21.636719-3.921875-9.121094-9.125-17.636719-15.5-25.375-2.632812-3.199219-7.359375-3.65625-10.558594-1.019531-3.195312 2.632812-3.652343 7.359375-1.019531 10.554687 6.386719 7.753907 11.398438 16.414063 14.894531 25.738281 1.085938 2.898438 3.839844 4.832032 6.933594 4.867188 31.964844.386719 57.972656 26.710938 57.972656 58.675781 0 32.363281-26.328124 58.695313-58.695312 58.695313h-186.949219c-24.546875 0-44.519531-19.972656-44.519531-44.519532 0-24.113281 18.871094-43.652343 42.960938-44.480468 3.867187-.132813 6.996093-3.183594 7.230468-7.042969 2.882813-47.625 42.550782-84.929687 90.3125-84.929687 16.625 0 32.882813 4.554687 47.019532 13.171874 3.535156 2.15625 8.148437 1.039063 10.308593-2.5 2.15625-3.535156 1.035157-8.148437-2.5-10.304687-8.25-5.03125-17.117187-8.875-26.347656-11.457031 8.964844-16.21875 21.433594-30.496094 36.394531-41.597656 3.328125-2.46875 4.023438-7.167969 1.554688-10.492188-2.46875-3.328125-7.164063-4.023438-10.492188-1.554688-17.953125 13.320313-32.683594 30.75-42.800781 50.566407-4.34375-.542969-8.726563-.832031-13.136719-.832031-53.5 0-98.296875 40.164062-104.695312 92.574218-28.976563 4.191406-50.808594 28.886719-50.808594 58.878906 0 32.820313 26.703125 59.519532 59.519531 59.519532h95.78125l-64.785156 64.785156c-5.296875 5.296875-6.867187 13.1875-4 20.109375 2.863281 6.917969 9.558594 11.390625 17.046875 11.390625h46.132812l-83.835937 83.835938c-6.851563 6.855468-7.363281 17.265624-1.210937 24.757812 3.6875 4.488281 8.867187 6.832031 14.160156 6.832031 3.539062 0 7.132812-1.046875 10.359375-3.210937l111.949219-74.910156c3.445312-2.304688 4.367187-6.960938 2.0625-10.40625-2.304688-3.441407-6.960938-4.367188-10.402344-2.0625l-111.949219 74.914062c-2.152344 1.441406-3.679687.425781-4.585937-.675781-.90625-1.105469-1.605469-2.800781.226562-4.632813l96.640625-96.640625c2.144531-2.144531 2.785156-5.371093 1.625-8.171875-1.160156-2.804687-3.894531-4.628906-6.929687-4.628906h-64.242188c-2.082031 0-2.921875-1.492188-3.1875-2.132812-.265625-.636719-.722656-2.289063.746094-3.757813l75.394531-75.390625h71.117187l-45.605468 45.601562c-2.144532 2.144532-2.785156 5.371094-1.625 8.175782 1.160156 2.800781 3.894531 4.628906 6.929687 4.628906h67.800781c2.226563 0 3.023438 1.535156 3.300782 2.449219.277344.914062.46875 2.632812-1.382813 3.871093l-56.601562 37.875c-3.441407 2.304688-4.367188 6.960938-2.0625 10.40625 1.445312 2.160157 3.820312 3.328126 6.242187 3.328126 1.433594 0 2.882813-.410157 4.164063-1.269532l56.601562-37.875c6.90625-4.621094 9.808594-12.746094 7.394531-20.695312-2.417968-7.953125-9.347656-13.089844-17.65625-13.089844h-49.695312l43.410156-43.40625h60.097656c.097657.097656.1875.203125.289063.300781l27.15625 25.867188-24.003906.582031c-6.339844.15625-11.738281 4.367188-13.433594 10.476562-1.695313 6.113282.761719 12.503907 6.117187 15.898438l123.839844 78.582031c2.4375 1.546875 5.117188 2.296875 7.753906 2.296875 4.21875 0 8.332032-1.921875 11.179688-5.566406 4.628906-5.921875 4.035156-13.980469-1.402344-19.164062l-48.363281-46.066407 21.792969-.53125c5.804687-.140625 10.90625-3.730469 12.996094-9.148437 2.089843-5.414063.722656-11.5-3.480469-15.503906l-39.917969-38.023438h22.269531c44.253907-.003906 80.261719-36.011719 80.261719-80.269531zm-74.179688 127.992187-38.214843.929688c-3.03125.074218-5.722657 1.964844-6.8125 4.796875-1.09375 2.828125-.371094 6.039062 1.824219 8.128906l56.320312 53.652344-115.894531-73.539063 39.8125-.96875c3.03125-.074218 5.71875-1.96875 6.8125-4.796875 1.09375-2.832031.371093-6.039062-1.824219-8.132812l-29.183594-27.792969h37.054688zm0 0"/><path d="m397.996094 128.304688c.578125 0 1.171875-.070313 1.757812-.210938 4.027344-.96875 6.507813-5.019531 5.539063-9.046875-1.472657-6.128906-3.488281-12.167969-5.988281-17.949219-1.648438-3.800781-6.058594-5.550781-9.863282-3.90625-3.800781 1.644532-5.550781 6.058594-3.90625 9.863282 2.164063 4.992187 3.902344 10.207031 5.175782 15.5.824218 3.4375 3.898437 5.75 7.285156 5.75zm0 0"/><path d="m366.691406 78.730469c1.472656 1.535156 3.4375 2.308593 5.410156 2.308593 1.867188 0 3.738282-.695312 5.191407-2.089843 2.988281-2.871094 3.085937-7.617188.21875-10.605469-21.152344-22.039062-49.574219-34.175781-80.035157-34.175781-4.140624 0-7.5 3.359375-7.5 7.5 0 4.144531 3.359376 7.5 7.5 7.5 26.335938 0 50.917969 10.5 69.214844 29.5625zm0 0"/></svg>