<svg xmlns="http://www.w3.org/2000/svg" viewBox="0 0 26.458333 33.0729175" x="0px" y="0px"><path d="m9.9018557 277.68686c-1.828356 0-3.316574 1.48678-3.316574 3.31361a.26460807.26457741 0 1 0 .529164 0c0-1.54061 1.244764-2.7845 2.78741-2.7845 1.5426393 0 2.7868903 1.24389 2.7868903 2.7845s-1.244251 2.78398-2.7868903 2.78398h-8.045972a.26460807.26457741 0 1 0 0 .5291h8.045972a.26460807.26457741 0 0 0 .03049-.003c1.8142073-.0167 3.2855663-1.49501 3.2855663-3.31154 0-1.82683-1.487705-3.31361-3.3160543-3.31361zm9.9879543 2.21768c-2.747714 0-4.981062 2.23061-4.981062 4.97583a.26460807.26457741 0 1 0 .529164 0c0-2.45899 1.989895-4.44673 4.451898-4.44673 2.462004 0 4.451895 1.98777 4.451895 4.44673 0 2.459-1.989891 4.44674-4.451895 4.44674h-18.0339263a.26460807.26457741 0 1 0 0 .5291h18.0339263a.26460807.26457741 0 0 0 .02997-.003c2.733791-.0164 4.951087-2.23918 4.951087-4.97427 0-2.74522-2.233345-4.97583-4.981059-4.97583z" transform="translate(0 -270.54165)"/><text x="0" y="41.458334" fill="#000000" font-size="5px" font-weight="bold" font-family="'Helvetica Neue', Helvetica, Arial-Unicode, Arial, Sans-serif">Created by ArtWorkLeaf</text><text x="0" y="46.458334" fill="#000000" font-size="5px" font-weight="bold" font-family="'Helvetica Neue', Helvetica, Arial-Unicode, Arial, Sans-serif">from the Noun Project</text></svg>